HIERARCHY
ROOT hip
{
  OFFSET 0 0 0
  CHANNELS 6 Xposition Yposition Zposition Zrotation Yrotation Xrotation
  JOINT abdomen
  {
    OFFSET 0 20.6881 -0.73152
    CHANNELS 3 Zrotation Xrotation Yrotation
    JOINT chest
    {
      OFFSET 0 11.7043 -0.48768
      CHANNELS 3 Zrotation Xrotation Yrotation
      JOINT neck
      {
        OFFSET 0 22.1894 -2.19456
        CHANNELS 3 Zrotation Xrotation Yrotation
        JOINT head
        {
          OFFSET -0.24384 7.07133 1.2192
          CHANNELS 3 Zrotation Xrotation Yrotation
          JOINT leftEye
          {
            OFFSET 4.14528 8.04674 8.04672
            CHANNELS 3 Zrotation Xrotation Yrotation
            End Site
            {
              OFFSET 1 0 0
            }
          }
          JOINT rightEye
          {
            OFFSET -3.6576 8.04674 8.04672
            CHANNELS 3 Zrotation Xrotation Yrotation
            End Site
            {
              OFFSET 1 0 0
            }
          }
        }
      }
      JOINT rCollar
      {
        OFFSET -2.68224 19.2634 -4.8768
        CHANNELS 3 Zrotation Xrotation Yrotation
        JOINT rShldr
        {
          OFFSET -8.77824 -1.95073 1.46304
          CHANNELS 3 Zrotation Xrotation Yrotation
          JOINT rForeArm
          {
            OFFSET -28.1742 -1.7115 0.48768
            CHANNELS 3 Zrotation Xrotation Yrotation
            JOINT rHand
            {
              OFFSET -22.5879 0.773209 7.07136
              CHANNELS 3 Zrotation Xrotation Yrotation
              JOINT rThumb1
              {
                OFFSET -1.2192 -0.487915 3.41376
                CHANNELS 3 Zrotation Xrotation Yrotation
                JOINT rThumb2
                {
                  OFFSET -3.37035 -0.52449 3.41376
                  CHANNELS 3 Zrotation Xrotation Yrotation
                  End Site
                  {
                    OFFSET -1.78271 -1.18214 1.43049
                  }
                }
              }
              JOINT rIndex1
              {
                OFFSET -7.75947 0.938293 5.60832
                CHANNELS 3 Zrotation Xrotation Yrotation
                JOINT rIndex2
                {
                  OFFSET -2.54057 -0.884171 1.56538
                  CHANNELS 3 Zrotation Xrotation Yrotation
                  End Site
                  {
                    OFFSET -1.62519 -0.234802 1.16502
                  }
                }
              }
              JOINT rMid1
              {
                OFFSET -8.24714 1.18213 3.41376
                CHANNELS 3 Zrotation Xrotation Yrotation
                JOINT rMid2
                {
                  OFFSET -3.10165 -0.590103 1.0647
                  CHANNELS 3 Zrotation Xrotation Yrotation
                  End Site
                  {
                    OFFSET -2.48547 -0.328903 0.83742
                  }
                }
              }
              JOINT rRing1
              {
                OFFSET -8.82822 0.546677 1.51678
                CHANNELS 3 Zrotation Xrotation Yrotation
                JOINT rRing2
                {
                  OFFSET -2.60934 -0.819778 -0.0198488
                  CHANNELS 3 Zrotation Xrotation Yrotation
                  End Site
                  {
                    OFFSET -2.33842 -0.294052 0.168128
                  }
                }
              }
              JOINT rPinky1
              {
                OFFSET -8.27202 -0.0477905 -0.4584
                CHANNELS 3 Zrotation Xrotation Yrotation
                JOINT rPinky2
                {
                  OFFSET -1.82734 -0.647385 -0.700984
                  CHANNELS 3 Zrotation Xrotation Yrotation
                  End Site
                  {
                    OFFSET -1.69225 -0.51767 -0.607171
                  }
                }
              }
            }
          }
        }
      }
      JOINT lCollar
      {
        OFFSET 2.68224 19.2634 -4.8768
        CHANNELS 3 Zrotation Xrotation Yrotation
        JOINT lShldr
        {
          OFFSET 8.77824 -1.95073 1.46304
          CHANNELS 3 Zrotation Xrotation Yrotation
          JOINT lForeArm
          {
            OFFSET 28.1742 -1.7115 0.48768
            CHANNELS 3 Zrotation Xrotation Yrotation
            JOINT lHand
            {
              OFFSET 22.5879 0.773209 7.07136
              CHANNELS 3 Zrotation Xrotation Yrotation
              JOINT lThumb1
              {
                OFFSET 1.2192 -0.487915 3.41376
                CHANNELS 3 Zrotation Xrotation Yrotation
                JOINT lThumb2
                {
                  OFFSET 3.37035 -0.52449 3.41376
                  CHANNELS 3 Zrotation Xrotation Yrotation
                  End Site
                  {
                    OFFSET 1.78271 -1.18214 1.43049
                  }
                }
              }
              JOINT lIndex1
              {
                OFFSET 7.75947 0.938293 5.60832
                CHANNELS 3 Zrotation Xrotation Yrotation
                JOINT lIndex2
                {
                  OFFSET 2.54057 -0.884171 1.56538
                  CHANNELS 3 Zrotation Xrotation Yrotation
                  End Site
                  {
                    OFFSET 1.62519 -0.234802 1.16502
                  }
                }
              }
              JOINT lMid1
              {
                OFFSET 8.24714 1.18213 3.41376
                CHANNELS 3 Zrotation Xrotation Yrotation
                JOINT lMid2
                {
                  OFFSET 3.10165 -0.590103 1.0647
                  CHANNELS 3 Zrotation Xrotation Yrotation
                  End Site
                  {
                    OFFSET 2.48547 -0.328903 0.83742
                  }
                }
              }
              JOINT lRing1
              {
                OFFSET 8.82822 0.546677 1.51678
                CHANNELS 3 Zrotation Xrotation Yrotation
                JOINT lRing2
                {
                  OFFSET 2.60934 -0.819778 -0.0198488
                  CHANNELS 3 Zrotation Xrotation Yrotation
                  End Site
                  {
                    OFFSET 2.33842 -0.294052 0.168128
                  }
                }
              }
              JOINT lPinky1
              {
                OFFSET 8.27202 -0.0477905 -0.4584
                CHANNELS 3 Zrotation Xrotation Yrotation
                JOINT lPinky2
                {
                  OFFSET 1.82734 -0.647385 -0.700984
                  CHANNELS 3 Zrotation Xrotation Yrotation
                  End Site
                  {
                    OFFSET 1.69225 -0.51767 -0.607171
                  }
                }
              }
            }
          }
        }
      }
    }
  }
  JOINT rButtock
  {
    OFFSET -8.77824 4.35084 1.2192
    CHANNELS 3 Zrotation Xrotation Yrotation
    JOINT rThigh
    {
      OFFSET 0 -1.70687 -2.19456
      CHANNELS 3 Zrotation Xrotation Yrotation
      JOINT rShin
      {
        OFFSET 0 -36.8199 0.73152
        CHANNELS 3 Zrotation Xrotation Yrotation
        JOINT rFoot
        {
          OFFSET 0.73152 -45.1104 -5.12064
          CHANNELS 3 Zrotation Xrotation Yrotation
          End Site
          {
            OFFSET -1.1221 -3.69964 12.103
          }
        }
      }
    }
  }
  JOINT lButtock
  {
    OFFSET 8.77824 4.35084 1.2192
    CHANNELS 3 Zrotation Xrotation Yrotation
    JOINT lThigh
    {
      OFFSET 0 -1.70687 -2.19456
      CHANNELS 3 Zrotation Xrotation Yrotation
      JOINT lShin
      {
        OFFSET 0 -36.8199 0.73152
        CHANNELS 3 Zrotation Xrotation Yrotation
        JOINT lFoot
        {
          OFFSET -0.73152 -45.1104 -5.12064
          CHANNELS 3 Zrotation Xrotation Yrotation
          End Site
          {
            OFFSET 1.1221 -3.69964 12.103
          }
        }
      }
    }
  }
}
MOTION
Frames:	4
Frame Time:	0.03333
-1.1925000973860733 62.54870295524597 46.522899795672856 -71.5116958618164 75.55631256103516 -65.3514175415039 3.2358758449554443 30.260189056396484 -5.524562358856201 11.544098854064941 -11.131810188293457 0.05856139957904816 -7.868218421936035 22.302108764648438 -17.139198303222656 25.656993865966797 -33.36639404296875 -27.394304275512695 -0.0 0.0 -0.0 -0.0 0.0 -0.0 0.0 0.0 0.0 51.6034049987793 4.209839344024658 -2.648780584335327 -27.533893585205078 -42.38860321044922 88.31919860839844 -0.5656530857086182 -20.867977142333984 -3.071026563644409 -0.0 0.0 -0.0 -0.0 0.0 -0.0 -0.0 0.0 -0.0 7.730902194976807 5.47491455078125 0.4173222780227661 -0.0 0.0 -0.0 2.905566453933716 0.9650754332542419 0.10300818830728531 -0.0 0.0 -0.0 10.278596878051758 0.7318810820579529 0.026273518800735474 -0.0 0.0 -0.0 2.221662998199463 -0.7334509491920471 -0.20832103490829468 0.0 0.0 0.0 -6.517782211303711 62.55139923095703 -69.048095703125 27.483192443847656 -42.563907623291016 -88.65269470214844 0.6058980226516724 -21.553897857666016 3.18239688873291 -0.0 -0.0 -0.0 -0.0 -0.0 -0.0 -0.0 -0.0 -0.0 -7.730902194976807 5.47491455078125 -0.4173222780227661 -0.0 -0.0 -0.0 -2.905566453933716 0.9650754332542419 -0.10300818830728531 -0.0 -0.0 -0.0 -10.278596878051758 0.7318810820579529 -0.026273518800735474 -0.0 -0.0 -0.0 -2.221662998199463 -0.7334509491920471 0.20832103490829468 -0.0 0.0 -0.0 -28.20110321044922 -40.82530212402344 -6.1263108253479 -0.47839000821113586 51.76439666748047 1.9157987833023071 -1.2828155755996704 17.490108489990234 9.676899909973145 0.0 0.0 0.0 60.74259948730469 -47.46269607543945 46.351295471191406 4.495169162750244 80.12969970703125 -5.946564674377441 6.6408257484436035 -11.195194244384766 21.03289031982422
-1.188000097317854 62.00550198554993 47.96759978344198 -70.685302734375 76.03559875488281 -64.32289123535156 2.773341655731201 29.484905242919922 -5.601230144500732 11.455694198608398 -11.028206825256348 -0.0391213484108448 -7.839672565460205 22.442094802856445 -17.218202590942383 25.531692504882812 -33.22140884399414 -27.600496292114258 -0.0 0.0 -0.0 -0.0 0.0 -0.0 0.0 0.0 0.0 51.3307991027832 4.424379825592041 -2.709716320037842 -27.460697174072266 -42.638301849365234 88.7957992553711 -0.5582941174507141 -20.478221893310547 -3.01137113571167 -0.0 0.0 -0.0 -0.0 0.0 -0.0 -0.0 0.0 -0.0 7.730902194976807 5.47491455078125 0.4173222780227661 -0.0 0.0 -0.0 2.905566453933716 0.9650754332542419 0.10300818830728531 -0.0 0.0 -0.0 10.278596878051758 0.7318810820579529 0.026273518800735474 -0.0 0.0 -0.0 2.221662998199463 -0.7334509491920471 -0.20832103490829468 0.0 0.0 0.0 -6.376534938812256 62.86180114746094 -69.31819152832031 27.460102081298828 -42.641597747802734 -88.80120849609375 0.597151517868042 -21.407089233398438 3.158491611480713 0.0 0.0 0.0 0.0 0.0 0.0 0.0 0.0 0.0 -7.730902194976807 5.47491455078125 -0.4173222780227661 0.0 0.0 0.0 -2.905566453933716 0.9650754332542419 -0.10300818830728531 0.0 0.0 0.0 -10.278596878051758 0.7318810820579529 -0.026273518800735474 0.0 0.0 0.0 -2.221662998199463 -0.7334509491920471 0.20832103490829468 -0.0 0.0 -0.0 -27.880605697631836 -39.865196228027344 -6.458649635314941 -0.5046009421348572 51.78679656982422 1.8095459938049316 -0.05448756739497185 11.534507751464844 7.588421821594238 0.0 0.0 0.0 60.9120979309082 -48.137298583984375 45.288089752197266 4.603340148925781 80.36011505126953 -6.0918402671813965 6.397541522979736 -10.729386329650879 21.002399444580078
-1.172000097722048 61.487698554992676 49.36509978433605 -70.05691528320312 76.38069915771484 -63.65058898925781 2.3310508728027344 28.955610275268555 -5.852696418762207 11.548690795898438 -11.074389457702637 -0.1442151665687561 -7.914580821990967 22.505699157714844 -17.277990341186523 25.40520668029785 -32.76289749145508 -27.821392059326172 -0.0 0.0 -0.0 -0.0 0.0 -0.0 0.0 0.0 0.0 50.959503173828125 4.767301082611084 -2.5502068996429443 -27.397602081298828 -42.84800338745117 89.1958999633789 -0.565365195274353 -21.117382049560547 -3.1087229251861572 -0.0 0.0 -0.0 -0.0 0.0 -0.0 -0.0 0.0 -0.0 7.730902194976807 5.47491455078125 0.4173222780227661 -0.0 0.0 -0.0 2.905566453933716 0.9650754332542419 0.10300818830728531 -0.0 0.0 -0.0 10.278596878051758 0.7318810820579529 0.026273518800735474 -0.0 0.0 -0.0 2.221662998199463 -0.7334509491920471 -0.20832103490829468 0.0 0.0 0.0 -6.769461631774902 63.25440979003906 -69.0924072265625 27.4424991607666 -42.700599670410156 -88.91378784179688 0.5775493383407593 -21.073205947875977 3.104372262954712 0.0 0.0 0.0 0.0 0.0 0.0 0.0 0.0 0.0 -7.730902194976807 5.47491455078125 -0.4173222780227661 0.0 0.0 0.0 -2.905566453933716 0.9650754332542419 -0.10300818830728531 0.0 0.0 0.0 -10.278596878051758 0.7318810820579529 -0.026273518800735474 0.0 0.0 0.0 -2.221662998199463 -0.7334509491920471 0.20832103490829468 -0.0 0.0 -0.0 -27.72730255126953 -39.12189483642578 -7.454601287841797 -0.5291672945022583 51.9656982421875 1.7346117496490479 0.7197206020355225 5.848891258239746 5.999257564544678 0.0 0.0 0.0 60.84828567504883 -48.71759796142578 43.95650100708008 4.661681175231934 80.48790740966797 -6.1790595054626465 6.193202018737793 -10.430695533752441 20.905500411987305
-1.2070000964740757 61.029601097106934 50.66499978711363 -69.80567932128906 76.54460144042969 -63.34881591796875 2.5369760990142822 28.3201847076416 -6.256123065948486 11.363600730895996 -11.161787033081055 -0.27035579085350037 -7.946852207183838 22.519989013671875 -17.336503982543945 25.286794662475586 -32.33649826049805 -28.02410316467285 -0.0 0.0 -0.0 -0.0 0.0 -0.0 0.0 0.0 0.0 50.55187225341797 4.953576564788818 -2.3091719150543213 -27.34349250793457 -43.01980209350586 89.52730560302734 -0.5999160408973694 -21.45349884033203 -3.1660842895507812 -0.0 0.0 -0.0 -0.0 0.0 -0.0 -0.0 0.0 -0.0 7.730902194976807 5.47491455078125 0.4173222780227661 -0.0 0.0 -0.0 2.905566453933716 0.9650754332542419 0.10300818830728531 -0.0 0.0 -0.0 10.278596878051758 0.7318810820579529 0.026273518800735474 -0.0 0.0 -0.0 2.221662998199463 -0.7334509491920471 -0.20832103490829468 0.0 0.0 0.0 -7.156034469604492 63.58359146118164 -68.91150665283203 27.4298038482666 -42.74250030517578 -88.9939956665039 0.5551968812942505 -20.684389114379883 3.041623115539551 0.0 0.0 0.0 0.0 0.0 0.0 0.0 0.0 0.0 -7.730902194976807 5.47491455078125 -0.4173222780227661 0.0 0.0 0.0 -2.905566453933716 0.9650754332542419 -0.10300818830728531 0.0 0.0 0.0 -10.278596878051758 0.7318810820579529 -0.026273518800735474 0.0 0.0 0.0 -2.221662998199463 -0.7334509491920471 0.20832103490829468 -0.0 0.0 -0.0 -27.731502532958984 -38.871299743652344 -8.810741424560547 -0.5572634339332581 52.43109893798828 1.699904441833496 1.186743974685669 1.1585211753845215 5.547577381134033 0.0 0.0 0.0 61.24580001831055 -49.49790573120117 43.04449462890625 4.772652626037598 80.66780090332031 -6.288511276245117 5.875494956970215 -11.43348503112793 19.173294067382812
